<?xml version="1.0" encoding="utf-8"?>
<!-- Generator: Adobe Illustrator 28.0.0, SVG Export Plug-In . SVG Version: 6.00 Build 0)  -->
<svg version="1.1" id="Layer_1" xmlns="http://www.w3.org/2000/svg" xmlns:xlink="http://www.w3.org/1999/xlink" x="0px" y="0px"
	 viewBox="0 0 149.5 150" style="enable-background:new 0 0 149.5 150;" xml:space="preserve">
<style type="text/css">
	.st0{fill:#323031;}
</style>
<g>
	<path class="st0" d="M112.49,87.83c9.04,0,16.39-7.35,16.39-16.39s-7.35-16.39-16.39-16.39c-9.04,0-16.39,7.35-16.39,16.39
		S103.45,87.83,112.49,87.83z M112.49,63.25c4.52,0,8.19,3.67,8.19,8.19c0,4.52-3.68,8.19-8.19,8.19c-4.52,0-8.19-3.67-8.19-8.19
		C104.29,66.93,107.97,63.25,112.49,63.25z"/>
	<path class="st0" d="M59.23,71.44c0.96,0,1.9-0.03,2.84-0.09L77.23,82.9c0.72,0.55,1.6,0.84,2.48,0.84c0.62,0,1.24-0.14,1.82-0.43
		c1.39-0.69,2.28-2.11,2.28-3.67V63.65c7.84-5.82,12.29-14.07,12.29-22.92C96.1,23.78,79.56,10,59.23,10
		C38.9,10,22.37,23.78,22.37,40.72S38.9,71.44,59.23,71.44z M59.23,18.19c15.81,0,28.67,10.11,28.67,22.53
		c0,6.71-3.8,13.04-10.43,17.35c-1.16,0.76-1.86,2.05-1.86,3.43v9.86l-9.83-7.48c-0.72-0.55-1.59-0.84-2.48-0.84
		c-0.14,0-0.27,0.01-0.41,0.02c-1.2,0.12-2.42,0.18-3.66,0.18c-15.81,0-28.67-10.11-28.67-22.53S43.42,18.19,59.23,18.19z"/>
	<path class="st0" d="M118.29,91.93h-5.8c-3.36,0-7.52,1.72-9.89,4.1l-12.29,12.29H79.72c-6.03,0-10.24,4.21-10.24,10.24
		s4.21,10.24,10.24,10.24h20.48c0.53,0,1.06-0.11,1.57-0.32c0.5-0.21,0.96-0.51,1.33-0.89l8.19-8.19c1.6-1.6,1.6-4.19,0-5.79
		c-1.6-1.6-4.19-1.6-5.79,0l-6.99,6.99H79.72c-1.3,0-2.05-0.34-2.05-2.05c0-1.71,0.75-2.05,2.05-2.05H92c0.53,0,1.06-0.11,1.57-0.32
		c0.5-0.21,0.96-0.51,1.33-0.89l13.49-13.49c0.82-0.82,2.93-1.7,4.1-1.7h5.79c1.39,0.06,6.5,3.17,6.5,8.19v20.48
		c0,2.26,1.83,4.1,4.1,4.1c2.26,0,4.1-1.83,4.1-4.1v-20.48C132.97,98.81,124.2,91.93,118.29,91.93z"/>
	<path class="st0" d="M96.1,132.89H30.56c-2.26,0-4.1,1.83-4.1,4.1s1.83,4.1,4.1,4.1H96.1c2.26,0,4.1-1.83,4.1-4.1
		S98.36,132.89,96.1,132.89z"/>
	<path class="st0" d="M34.66,128.79h24.58c2.26,0,4.1-1.83,4.1-4.1s-1.83-4.1-4.1-4.1H37.5l-9.22-24.58h32.28l3.88,9.71
		c0.84,2.1,3.24,3.12,5.32,2.28c2.1-0.84,3.12-3.22,2.28-5.32L67.13,90.4c-0.62-1.55-2.13-2.57-3.8-2.57H22.37
		c-1.34,0-2.6,0.66-3.37,1.76c-0.76,1.11-0.94,2.51-0.47,3.77l12.29,32.77C31.42,127.73,32.95,128.79,34.66,128.79z"/>
	<circle class="st0" cx="75.62" cy="38.67" r="4.1"/>
	<circle class="st0" cx="42.85" cy="38.67" r="4.1"/>
	<circle class="st0" cx="59.23" cy="38.67" r="4.1"/>
</g>
</svg>
