<?xml version="1.0" encoding="utf-8"?>
<!-- Generator: Adobe Illustrator 28.0.0, SVG Export Plug-In . SVG Version: 6.00 Build 0)  -->
<svg version="1.1" id="Layer_1" xmlns="http://www.w3.org/2000/svg" xmlns:xlink="http://www.w3.org/1999/xlink" x="0px" y="0px"
	 viewBox="0 0 149.5 150" style="enable-background:new 0 0 149.5 150;" xml:space="preserve">
<style type="text/css">
	.st0{fill:none;}
	.st1{fill:#3C3C3B;}
</style>
<polyline class="st0" points="-1.38,-1 150.96,-1 150.96,151.33 -1.38,151.33 "/>
<g>
	<g>
		<path class="st1" d="M67.65,32.32c-6.56,0-11.9-5.34-11.9-11.9s5.34-11.9,11.9-11.9c6.56,0,11.9,5.34,11.9,11.9
			S74.21,32.32,67.65,32.32z M67.65,13.28c-3.94,0-7.14,3.2-7.14,7.14s3.2,7.14,7.14,7.14c3.94,0,7.14-3.2,7.14-7.14
			S71.59,13.28,67.65,13.28z"/>
		<path class="st1" d="M103.35,79.93H31.95c-1.13,0-2.11-0.8-2.33-1.91l-2.38-11.9c-0.14-0.7,0.04-1.42,0.49-1.98
			c0.45-0.55,1.13-0.87,1.84-0.87h76.17c0.71,0,1.39,0.32,1.84,0.87c0.45,0.55,0.63,1.28,0.49,1.98l-2.38,11.9
			C105.46,79.13,104.49,79.93,103.35,79.93z M33.9,75.17h67.51l1.43-7.14H32.47L33.9,75.17z"/>
		<g>
			<g>
				<path class="st1" d="M97.05,77.55h-5.53c-6.17,12.54-7.12,44.25-7.2,47.6h4.75v0.31C89.07,112.73,92.07,82.35,97.05,77.55z"/>
				<path class="st1" d="M46.23,125.15h4.75c-0.08-3.35-1.03-35.06-7.2-47.6h-5.53c4.97,4.8,7.98,35.18,7.98,47.91V125.15z"/>
			</g>
			<path class="st1" d="M89.07,141.81H46.23c-1.32,0-2.38-1.06-2.38-2.38v-14.28c0-1.32,1.06-2.38,2.38-2.38h42.84
				c1.32,0,2.38,1.06,2.38,2.38v14.28C91.45,140.75,90.39,141.81,89.07,141.81z M48.61,137.05h38.08v-9.52H48.61V137.05z"/>
		</g>
	</g>
	<path class="st1" d="M55.75,65.65v-11.9c0-1.31-1.06-2.38-2.38-2.38c-1.32,0-2.38,1.07-2.38,2.38v11.9H55.75z"/>
	<path class="st1" d="M123.84,26.06c-1.78-3.06-5.37-4.12-8.36-2.62L81.47,37.08H70.03h-4.76h-11.9c-6.56,0-11.9,5.34-11.9,11.9
		v16.66h4.76V48.98c0-3.94,3.2-7.14,7.14-7.14h11.9h4.76h12.36l35.05-14.06c1.09-0.54,1.91,0.02,2.29,0.67
		c0.62,1.07,0.39,2.95-2.1,4.63L83.18,51.65l0.02,0.03c-0.74,0.4-1.27,1.16-1.27,2.07v11.9h4.76V55.16l33.38-18.01
		C125.13,33.78,125.57,29.04,123.84,26.06z"/>
</g>
</svg>
