<?xml version="1.0" encoding="utf-8"?>
<!-- Generator: Adobe Illustrator 28.0.0, SVG Export Plug-In . SVG Version: 6.00 Build 0)  -->
<svg version="1.1" id="Layer_1" xmlns="http://www.w3.org/2000/svg" xmlns:xlink="http://www.w3.org/1999/xlink" x="0px" y="0px"
	 viewBox="0 0 149.5 150" style="enable-background:new 0 0 149.5 150;" xml:space="preserve">
<style type="text/css">
	.st0{fill:none;}
	.st1{fill:#3C3C3B;}
</style>
<rect x="8.62" y="6" class="st0" width="136.33" height="136.33"/>
<path class="st1" d="M85.31,106.12c5.87,0,10.65-4.78,10.65-10.65s-4.78-10.65-10.65-10.65c-5.87,0-10.65,4.78-10.65,10.65
	S79.44,106.12,85.31,106.12z M85.31,89.08c3.52,0,6.39,2.87,6.39,6.39s-2.87,6.39-6.39,6.39c-3.52,0-6.39-2.87-6.39-6.39
	S81.79,89.08,85.31,89.08z"/>
<path class="st1" d="M119.39,106.12c5.87,0,10.65-4.78,10.65-10.65s-4.78-10.65-10.65-10.65c-5.87,0-10.65,4.78-10.65,10.65
	S113.52,106.12,119.39,106.12z M119.39,89.08c3.52,0,6.39,2.87,6.39,6.39s-2.87,6.39-6.39,6.39c-3.52,0-6.39-2.87-6.39-6.39
	S115.87,89.08,119.39,89.08z"/>
<path class="st1" d="M138.57,116.77c0-4.7-3.82-8.52-8.52-8.52h-2.13c-0.57,0-1.11,0.22-1.51,0.62l-7.01,7.02l-7.01-7.02
	c-0.4-0.4-0.94-0.62-1.51-0.62h-2.13c-2.56,0-4.83,1.16-6.39,2.94c-1.56-1.79-3.83-2.94-6.39-2.94h-2.13
	c-0.57,0-1.11,0.22-1.51,0.62l-7.01,7.02l-7.01-7.02c-0.4-0.4-0.94-0.62-1.51-0.62h-2.13c-4.7,0-8.52,3.82-8.52,8.52v6.39
	c0,0,0,0,0,0v0v4.26c0,3.52,2.87,6.39,6.39,6.39h25.56c1.64,0,3.13-0.64,4.26-1.66c1.13,1.02,2.62,1.66,4.26,1.66h25.56
	c3.52,0,6.39-2.87,6.39-6.39v-4.26v0c0,0,0,0,0,0V116.77z M98.09,129.55H72.53c-1.18,0-2.13-0.96-2.13-2.13v-4.26v0c0,0,0,0,0,0
	v-6.39c0-2.35,1.91-4.26,4.26-4.26h1.25l7.9,7.9c0.8,0.8,2.21,0.8,3.01,0l7.9-7.9h1.25c2.35,0,4.26,1.91,4.26,4.26v6.39c0,0,0,0,0,0
	v0v4.26C100.22,128.6,99.27,129.55,98.09,129.55z M134.3,127.42c0,1.17-0.95,2.13-2.13,2.13h-25.56c-1.18,0-2.13-0.96-2.13-2.13
	v-4.26v0c0,0,0,0,0,0v-6.39c0-2.35,1.91-4.26,4.26-4.26h1.25l7.9,7.9c0.8,0.8,2.21,0.8,3.01,0l7.9-7.9h1.25
	c2.35,0,4.26,1.91,4.26,4.26v6.39c0,0,0,0,0,0v0V127.42z"/>
<g>
	<path class="st1" d="M55.49,31.56c0,1.18,0.95,2.13,2.13,2.13h8.52c1.18,0,2.13-0.95,2.13-2.13c0-1.18-0.95-2.13-2.13-2.13h-8.52
		C56.44,29.43,55.49,30.39,55.49,31.56z"/>
	<path class="st1" d="M55.49,25.17c0.22,0,0.45-0.04,0.67-0.11l6.39-2.13c1.11-0.37,1.72-1.58,1.35-2.69
		c-0.37-1.12-1.57-1.72-2.7-1.35l-6.39,2.13c-1.11,0.37-1.72,1.58-1.35,2.69C53.76,24.61,54.59,25.17,55.49,25.17z"/>
	<path class="st1" d="M56.16,38.06c-1.13-0.37-2.32,0.23-2.69,1.35c-0.37,1.12,0.23,2.32,1.35,2.69l6.39,2.13
		c0.22,0.07,0.45,0.11,0.67,0.11c0.89,0,1.72-0.56,2.02-1.46c0.37-1.12-0.23-2.32-1.35-2.7L56.16,38.06z"/>
	<path class="st1" d="M38.45,42.22c4.03,0,7.67-2.26,9.49-5.9c0.39-0.77,0.27-1.71-0.3-2.36l-2.1-2.39l2.1-2.39
		c0.57-0.65,0.69-1.59,0.3-2.36c-1.82-3.64-5.46-5.9-9.49-5.9c-5.87,0-10.65,4.78-10.65,10.65C27.79,37.44,32.57,42.22,38.45,42.22z
		 M38.45,25.17c1.95,0,3.74,0.89,4.94,2.39l-2.28,2.6c-0.71,0.8-0.71,2.01,0,2.81l2.28,2.6c-1.2,1.5-2.99,2.39-4.94,2.39
		c-3.52,0-6.39-2.87-6.39-6.39S34.92,25.17,38.45,25.17z"/>
	<path class="st1" d="M77.86,61.68c-17.29-10.09-26.97-15.2-28.77-15.2H25.66c-5.87,0-10.65,4.78-10.65,10.65v27.69
		c0,4.91,3.81,10.97,8.52,12.44v30.16c0,3.52,2.87,6.39,6.39,6.39h4.26c1.64,0,3.13-0.64,4.26-1.66c1.13,1.02,2.62,1.66,4.26,1.66
		h4.26c3.52,0,6.39-2.87,6.39-6.39V64.69l20.35,9.25c2.03,1.02,4.55,0.82,6.57-0.51c1.9-1.25,2.96-3.24,2.84-5.32
		C83,66.32,81.98,63.73,77.86,61.68z M46.97,129.55h-4.26c-1.18,0-2.13-0.96-2.13-2.13v-21.3V93.34c0-1.18-0.95-2.13-2.13-2.13
		c-1.18,0-2.13,0.95-2.13,2.13v12.78v21.3c0,1.17-0.95,2.13-2.13,2.13h-4.26c-1.18,0-2.13-0.96-2.13-2.13V82.69h21.3v44.73
		C49.1,128.6,48.14,129.55,46.97,129.55z M77.93,69.88c-0.56,0.37-1.5,0.66-2.39,0.22L52.11,59.45c-0.66-0.3-1.43-0.24-2.03,0.15
		c-0.61,0.39-0.98,1.07-0.98,1.79v17.04h-21.3V61.39c0-1.18-0.95-2.13-2.13-2.13c-1.18,0-2.13,0.95-2.13,2.13v31.18
		c-2.21-1.5-4.26-4.91-4.26-7.74V57.12c0-3.52,2.87-6.39,6.39-6.39h23.26c2.17,0.63,15.22,7.87,26.91,14.69
		c1.83,0.92,2.96,2.02,3.02,2.95C78.91,69.17,78.16,69.73,77.93,69.88z"/>
</g>
</svg>
