<?xml version="1.0" encoding="utf-8"?>
<!-- Generator: Adobe Illustrator 28.0.0, SVG Export Plug-In . SVG Version: 6.00 Build 0)  -->
<svg version="1.1" id="Layer_1" xmlns="http://www.w3.org/2000/svg" xmlns:xlink="http://www.w3.org/1999/xlink" x="0px" y="0px"
	 viewBox="0 0 149.5 150" style="enable-background:new 0 0 149.5 150;" xml:space="preserve">
<style type="text/css">
	.st0{fill:none;}
	.st1{fill:#222A33;}
</style>
<rect x="2" y="-40.92" class="st0" width="218.24" height="218.24"/>
<rect x="2" y="-40.92" class="st0" width="218.24" height="218.24"/>
<g>
	<path class="st1" d="M77.93,119.8v16.29h53.12c0-18.16-12.24-32.6-32.76-38.79c-1.02-2.06-2.1-5.39-1.92-9.87
		c5.04-6.84,7.88-15.48,8.16-22.73c-0.69-0.18-1.38-0.45-2.08-0.8c-0.95-0.47-1.85-0.89-2.75-1.31c-0.08,5.55-1.21,10.77-3.15,15.32
		c-2.41,4.77-6.83,5.55-8.08,3.57c-2.21-3.51-4.07-6.38-7.06-6.38H68.35c-2.99,0-5.27,3.09-7.06,6.38c-1.02,1.88-5.6,1.19-7.98-3.36
		c-1.97-4.56-3.13-9.79-3.24-15.37c-0.81,0.38-1.6,0.74-2.45,1.15c-0.69,0.34-1.37,0.59-2.04,0.77c0.38,7.75,3.16,16.52,8.19,23.31
		c0.07,4.18-0.98,7.33-1.96,9.32c-20.55,6.19-32.79,20.56-32.79,38.78h53.12V119.5L57.3,101.21c0.53-1.18,1.24-4.39,1.83-7.55
		c4.28,3.5,9.54,5.71,15.76,5.71c6.33,0,11.77-2.43,16.2-6.2c0.8,3.46,1.85,7.09,2.48,8.4L77.93,119.8z M74.88,86.45
		c-4.17-0.01-8.72-2.2-8.52-4.88c0.14-1.8,1.77-2.56,3.45-2.86c-0.24,0.28-0.38,0.58-0.38,0.91c0,1.39,2.44,2.51,5.45,2.51
		c3.01,0,5.45-1.13,5.45-2.51c0-0.21-0.06-0.4-0.17-0.59c1.74,0.42,3.13,1.19,3.23,2.55C83.6,84.25,79.22,86.44,74.88,86.45z"/>
	<path class="st1" d="M43.43,59.79c0.52,0,1.16-0.16,1.9-0.53c11.15-5.47,20-8.24,29.79-8.25c9.73,0,18.76,2.84,29.63,8.25
		c0.76,0.38,1.45,0.57,2.02,0.57c1.2,0,1.84-0.86,1.43-2.61c-0.65-2.83-1.85-6.37-2.47-9.11l-2.18-20.82c0-3.38-2.84-5.45-6.19-6.12
		c-3.78-0.76-11-2.66-16.24-4.08c-0.59-1.85-3.09-3.24-6.09-3.24c-2.97,0-5.44,1.37-6.07,3.19c-5.17,1.42-12.43,3.36-16.26,4.13
		c-3.35,0.67-6.19,2.74-6.19,6.12l-2.25,21.17c-0.89,2.54-1.55,5.74-2.39,8.75C41.5,58.6,41.99,59.79,43.43,59.79z M50.35,45.46
		c0.23-0.41,0.53-0.76,1.42-1.11c7.38-2.86,16.27-4.63,23.22-4.63c6.78,0,15.12,1.64,23.47,4.63c0.93,0.33,1.23,0.7,1.48,1.14
		l1.74,6.57c-6.77-3.08-15.13-6.46-26.6-6.46c-11.31,0-20.01,3.49-26.57,6.4L50.35,45.46z"/>
	<path class="st1" d="M60.82,61.81c0,2.42,1.52,4.37,3.38,4.37c1.86,0,3.37-1.96,3.37-4.37c0-2.41-1.51-4.37-3.37-4.37
		C62.33,57.44,60.82,59.4,60.82,61.81z"/>
	<path class="st1" d="M82.2,61.81c0,2.42,1.51,4.37,3.37,4.37c1.86,0,3.38-1.96,3.38-4.37c0-2.41-1.51-4.37-3.38-4.37
		C83.71,57.44,82.2,59.4,82.2,61.81z"/>
</g>
</svg>
