<?xml version="1.0" encoding="utf-8"?>
<!-- Generator: Adobe Illustrator 28.0.0, SVG Export Plug-In . SVG Version: 6.00 Build 0)  -->
<svg version="1.1" id="Layer_1" xmlns="http://www.w3.org/2000/svg" xmlns:xlink="http://www.w3.org/1999/xlink" x="0px" y="0px"
	 viewBox="0 0 149.5 150" style="enable-background:new 0 0 149.5 150;" xml:space="preserve">
<style type="text/css">
	.st0{fill:#323031;}
</style>
<g>
	<path class="st0" d="M42.13,43.49c7.3,0,13.25-5.94,13.25-13.25S49.43,17,42.13,17c-7.3,0-13.25,5.94-13.25,13.25
		S34.83,43.49,42.13,43.49z M42.13,23.62c3.65,0,6.62,2.97,6.62,6.62s-2.97,6.62-6.62,6.62s-6.62-2.97-6.62-6.62
		S38.48,23.62,42.13,23.62z"/>
	<path class="st0" d="M74.15,59.58C74.15,59.58,74.15,59.58,74.15,59.58l-6.63-5.97c-4.32-3.88-10.96-6.81-15.46-6.81h-6.62H32.19
		c-9.13,0-16.56,7.43-16.56,16.56v3.31v9.93v6.63c0,5.48,4.46,9.93,9.93,9.93c0.48,0,0.93-0.11,1.34-0.3l1.98,33.6
		c0.1,1.75,1.55,3.12,3.3,3.12h19.87c1.76,0,3.21-1.37,3.31-3.13l2.99-53.82l14.22,9.47c2.45,1.63,5.34,2.22,7.91,1.62
		c2.13-0.5,3.87-1.77,4.92-3.58c2.23-3.84,0.93-9.59-2.95-13.08L74.15,59.58z M79.69,76.83c-0.05,0.08-0.19,0.33-0.7,0.44
		c-0.63,0.15-1.66,0.04-2.74-0.68L57.21,63.92c-0.99-0.66-2.26-0.74-3.32-0.21c-1.06,0.53-1.76,1.59-1.83,2.78l-3.14,56.48H35.32
		l-3.13-53.18c-0.11-1.83-1.73-3.21-3.5-3.11c-1.83,0.11-3.22,1.67-3.11,3.5l0.97,16.56c-0.32-0.1-0.63-0.2-0.98-0.2
		c-1.83,0-3.31-1.48-3.31-3.31V76.6v-9.93v-3.31c0-5.48,4.46-9.93,9.93-9.93h13.25h6.62c2.52,0,7.78,2.19,11.03,5.11l6.62,5.96
		c0,0,0,0,0,0l8.32,7.49C79.8,73.57,80.2,75.95,79.69,76.83z"/>
	<path class="st0" d="M104.24,80.01L91,83.33c-1.47,0.37-2.51,1.69-2.51,3.21v39.74c0,1.83,1.48,3.31,3.31,3.31
		c1.83,0,3.31-1.48,3.31-3.31V89.12l6.62-1.66v38.81c0,1.83,1.48,3.31,3.31,3.31c1.83,0,3.31-1.48,3.31-3.31V83.23
		c0-1.02-0.47-1.98-1.27-2.61C106.28,79.99,105.22,79.76,104.24,80.01z"/>
	<path class="st0" d="M81.06,109.82l-13.25,3.31c-1.47,0.37-2.51,1.69-2.51,3.21v9.93c0,1.83,1.48,3.31,3.31,3.31
		c1.83,0,3.31-1.48,3.31-3.31v-7.35l6.62-1.66v9c0,1.83,1.48,3.31,3.31,3.31c1.83,0,3.31-1.48,3.31-3.31v-13.25
		c0-1.02-0.47-1.98-1.27-2.61C83.1,109.79,82.05,109.57,81.06,109.82z"/>
	<path class="st0" d="M130.26,57.44c-0.8-0.63-1.86-0.86-2.84-0.6l-13.25,3.31c-1.47,0.37-2.51,1.69-2.51,3.21v62.92
		c0,1.83,1.48,3.31,3.31,3.31c1.83,0,3.31-1.48,3.31-3.31V65.94l6.62-1.66v61.99c0,1.83,1.48,3.31,3.31,3.31
		c1.83,0,3.31-1.48,3.31-3.31V60.05C131.54,59.03,131.06,58.07,130.26,57.44z"/>
</g>
</svg>
