<?xml version="1.0" encoding="utf-8"?>
<!-- Generator: Adobe Illustrator 28.0.0, SVG Export Plug-In . SVG Version: 6.00 Build 0)  -->
<svg version="1.1" id="Layer_1" xmlns="http://www.w3.org/2000/svg" xmlns:xlink="http://www.w3.org/1999/xlink" x="0px" y="0px"
	 viewBox="0 0 149.5 150" style="enable-background:new 0 0 149.5 150;" xml:space="preserve">
<style type="text/css">
	.st1{fill:#aaaaaa;}
</style>
<g>
	<g>
	</g>
	<g>
		<g>
			<g>
				<path class="st1" d="M75.58,87.75h-1.83c-15.51,0-21.15-16.95-22.63-22.74c-4.08-0.96-6.78-4.71-6.78-9.77V44.25h2.98v-13.8
					c0-10.6,8.62-19.22,19.22-19.22h29.53v4.53c0,0.53-0.03,1.06-0.07,1.58c3.55,1.78,5.99,5.46,5.99,9.69v17.23h2.93v10.99
					c0,5.06-2.68,8.8-6.72,9.77C96.73,70.79,91.1,87.75,75.58,87.75z M49.51,49.42v5.82c0,1.14,0.27,4.84,3.73,4.84h2.15l0.39,2.11
					c0.04,0.2,3.97,20.39,17.97,20.39h1.83c14,0,17.93-20.19,17.97-20.39l0.39-2.11l2.15,0c3.41,0,3.67-3.71,3.67-4.84v-5.82h-2.93
					v-22.4c0-1.8-0.84-3.41-2.16-4.44c-2.65,6.14-8.77,10.46-15.87,10.46H64.47c-0.9,0-1.64,0.73-1.64,1.64v2.72h-5.17v-2.72
					c0-3.75,3.05-6.81,6.81-6.81H78.8c6.46,0,11.75-5.09,12.09-11.47H66.55c-7.75,0-14.05,6.3-14.05,14.05v18.97H49.51z"/>
			</g>
			<g>
				<path class="st1" d="M129.59,136.54l-0.05-12.6c0.06-0.72,0.97-10.65-9.83-17.09c-7.21-4.31-18.11-8.14-25.98-10.59
					c-6.39-1.99-10.68-7.81-10.68-14.47h5.17c0,4.39,2.83,8.22,7.05,9.54c8.14,2.54,19.45,6.53,27.09,11.09
					c13.77,8.22,12.4,21.27,12.34,21.83l0.06,12.29L129.59,136.54z"/>
			</g>
			<g>
				<path class="st1" d="M19.78,136.53h-5.17v-12.6c-0.05-0.25-1.41-13.31,12.35-21.53c7.64-4.56,18.95-8.54,27.09-11.09
					c4.22-1.31,7.05-5.15,7.05-9.54h5.17c0,6.66-4.29,12.48-10.68,14.47c-7.88,2.46-18.78,6.29-25.98,10.59
					c-10.81,6.45-9.89,16.38-9.85,16.8L19.78,136.53z"/>
			</g>
			<g>
				<g>
					<polygon class="st1" points="64.98,116.16 49.37,96.49 53.42,93.28 65.5,108.49 71.06,103.17 59.61,90.55 63.43,87.07 
						78.27,103.42 					"/>
				</g>
			</g>
			<g>
				<g>
					<polygon class="st1" points="84.35,116.16 71.06,103.42 85.9,87.07 89.72,90.55 78.27,103.17 83.83,108.49 95.91,93.28 
						99.96,96.49 					"/>
				</g>
			</g>
			<g>
				<path class="st1" d="M74.66,118.16c-2.02,0-3.94-0.98-5.13-2.62l-4.66-6.45l9.78-9.38l9.78,9.38l-4.66,6.45
					C78.61,117.17,76.69,118.16,74.66,118.16L74.66,118.16z M71.7,109.71l2.02,2.8c0.6,0.84,1.27,0.83,1.87,0l2.03-2.8l-2.96-2.83
					L71.7,109.71z"/>
			</g>
			<g>
				
					<rect x="57.78" y="122.69" transform="matrix(0.2051 -0.9787 0.9787 0.2051 -67.5482 167.3758)" class="st1" width="22.99" height="5.17"/>
			</g>
			<g>
				
					<rect x="77.46" y="113.78" transform="matrix(0.9787 -0.2051 0.2051 0.9787 -23.9876 19.0768)" class="st1" width="5.17" height="23"/>
			</g>
		</g>
		<g>
			<g>
				<rect x="112.93" y="125.28" class="st1" width="5.17" height="11.25"/>
			</g>
			<g>
				<rect x="31.22" y="125.28" class="st1" width="5.17" height="11.25"/>
			</g>
		</g>
	</g>
</g>
</svg>
